<svg xmlns="http://www.w3.org/2000/svg" width="1440" height="900"><path d="M672,469L685,550L768,476Z" fill="#c8942c" stroke="#c8942c" stroke-width="1.51"/><path d="M685,550L747,561L768,476Z" fill="#bf9233" stroke="#bf9233" stroke-width="1.51"/><path d="M768,476L663,345L672,469Z" fill="#d29222" stroke="#d29222" stroke-width="1.51"/><path d="M768,476L779,327L663,345Z" fill="#cf8c24" stroke="#cf8c24" stroke-width="1.51"/><path d="M913,587L874,440L768,476Z" fill="#b48f3b" stroke="#b48f3b" stroke-width="1.51"/><path d="M685,550L636,657L747,561Z" fill="#b48d3a" stroke="#b48d3a" stroke-width="1.51"/><path d="M546,561L636,657L685,550Z" fill="#b48639" stroke="#b48639" stroke-width="1.51"/><path d="M546,561L685,550L672,469Z" fill="#c18a31" stroke="#c18a31" stroke-width="1.51"/><path d="M533,420L546,561L672,469Z" fill="#ca8728" stroke="#ca8728" stroke-width="1.51"/><path d="M874,440L779,327L768,476Z" fill="#c58e2e" stroke="#c58e2e" stroke-width="1.51"/><path d="M663,345L533,420L672,469Z" fill="#d18722" stroke="#d18722" stroke-width="1.51"/><path d="M747,561L913,587L768,476Z" fill="#b28f3d" stroke="#b28f3d" stroke-width="1.51"/><path d="M795,705L913,587L747,561Z" fill="#9f8a47" stroke="#9f8a47" stroke-width="1.51"/><path d="M636,657L795,705L747,561Z" fill="#a88d42" stroke="#a88d42" stroke-width="1.51"/><path d="M874,440L868,340L779,327Z" fill="#c08731" stroke="#c08731" stroke-width="1.51"/><path d="M975,346L868,340L874,440Z" fill="#b68538" stroke="#b68538" stroke-width="1.51"/><path d="M546,561L539,659L636,657Z" fill="#ac7f3e" stroke="#ac7f3e" stroke-width="1.51"/><path d="M636,657L681,782L795,705Z" fill="#98874a" stroke="#98874a" stroke-width="1.51"/><path d="M423,666L539,659L546,561Z" fill="#ab783d" stroke="#ab783d" stroke-width="1.51"/><path d="M567,201L551,327L663,345Z" fill="#cf7022" stroke="#cf7022" stroke-width="1.51"/><path d="M663,345L551,327L533,420Z" fill="#d07b22" stroke="#d07b22" stroke-width="1.51"/><path d="M795,705L910,680L913,587Z" fill="#8d8650" stroke="#8d8650" stroke-width="1.51"/><path d="M779,327L683,195L663,345Z" fill="#d07d22" stroke="#d07d22" stroke-width="1.51"/><path d="M868,340L799,239L779,327Z" fill="#c37d2d" stroke="#c37d2d" stroke-width="1.51"/><path d="M542,811L681,782L636,657Z" fill="#917d4d" stroke="#917d4d" stroke-width="1.51"/><path d="M795,705L886,780L910,680Z" fill="#7f8256" stroke="#7f8256" stroke-width="1.51"/><path d="M425,354L425,476L533,420Z" fill="#cf7622" stroke="#cf7622" stroke-width="1.51"/><path d="M533,420L425,476L546,561Z" fill="#c97e29" stroke="#c97e29" stroke-width="1.51"/><path d="M425,476L423,544L546,561Z" fill="#c0792f" stroke="#c0792f" stroke-width="1.51"/><path d="M868,340L861,235L799,239Z" fill="#bf7830" stroke="#bf7830" stroke-width="1.51"/><path d="M1030,467L975,346L874,440Z" fill="#ae893d" stroke="#ae893d" stroke-width="1.51"/><path d="M1030,467L874,440L913,587Z" fill="#a78c43" stroke="#a78c43" stroke-width="1.51"/><path d="M975,346L861,235L868,340Z" fill="#b77b36" stroke="#b77b36" stroke-width="1.51"/><path d="M910,680L984,652L913,587Z" fill="#878453" stroke="#878453" stroke-width="1.51"/><path d="M1021,788L984,652L910,680Z" fill="#707f5d" stroke="#707f5d" stroke-width="1.51"/><path d="M763,140L683,195L799,239Z" fill="#cb6e26" stroke="#cb6e26" stroke-width="1.51"/><path d="M799,239L683,195L779,327Z" fill="#cb7827" stroke="#cb7827" stroke-width="1.51"/><path d="M681,782L769,813L795,705Z" fill="#898352" stroke="#898352" stroke-width="1.51"/><path d="M1030,585L1030,467L913,587Z" fill="#94874d" stroke="#94874d" stroke-width="1.51"/><path d="M984,652L1030,585L913,587Z" fill="#888453" stroke="#888453" stroke-width="1.51"/><path d="M769,813L886,780L795,705Z" fill="#7d8157" stroke="#7d8157" stroke-width="1.51"/><path d="M551,327L425,354L533,420Z" fill="#cf7322" stroke="#cf7322" stroke-width="1.51"/><path d="M425,476L320,451L423,544Z" fill="#c7722a" stroke="#c7722a" stroke-width="1.51"/><path d="M453,241L425,354L551,327Z" fill="#ce6622" stroke="#ce6622" stroke-width="1.51"/><path d="M539,659L542,811L636,657Z" fill="#9a7a48" stroke="#9a7a48" stroke-width="1.51"/><path d="M423,544L423,666L546,561Z" fill="#b37538" stroke="#b37538" stroke-width="1.51"/><path d="M683,195L567,201L663,345Z" fill="#ce6f22" stroke="#ce6f22" stroke-width="1.51"/><path d="M429,810L542,811L539,659Z" fill="#8f714c" stroke="#8f714c" stroke-width="1.51"/><path d="M636,922L789,890L769,813Z" fill="#90724e" stroke="#90724e" stroke-width="1.51"/><path d="M683,195L669,118L567,201Z" fill="#cd6222" stroke="#cd6222" stroke-width="1.51"/><path d="M861,235L763,140L799,239Z" fill="#c26e2c" stroke="#c26e2c" stroke-width="1.51"/><path d="M567,201L453,241L551,327Z" fill="#cd6322" stroke="#cd6322" stroke-width="1.51"/><path d="M763,140L669,118L683,195Z" fill="#ce6622" stroke="#ce6622" stroke-width="1.51"/><path d="M567,201L409,133L453,241Z" fill="#cb5122" stroke="#cb5122" stroke-width="1.51"/><path d="M1030,467L1129,315L975,346Z" fill="#a18044" stroke="#a18044" stroke-width="1.51"/><path d="M975,346L1010,209L861,235Z" fill="#af733a" stroke="#af733a" stroke-width="1.51"/><path d="M861,235L862,87L763,140Z" fill="#bf662e" stroke="#bf662e" stroke-width="1.51"/><path d="M1129,542L1108,465L1030,467Z" fill="#91874e" stroke="#91874e" stroke-width="1.51"/><path d="M636,922L769,813L681,782Z" fill="#91764e" stroke="#91764e" stroke-width="1.51"/><path d="M769,813L876,884L886,780Z" fill="#7c7657" stroke="#7c7657" stroke-width="1.51"/><path d="M304,342L320,451L425,354Z" fill="#ce6422" stroke="#ce6422" stroke-width="1.51"/><path d="M425,354L320,451L425,476Z" fill="#cf7022" stroke="#cf7022" stroke-width="1.51"/><path d="M423,544L306,558L423,666Z" fill="#b36d37" stroke="#b36d37" stroke-width="1.51"/><path d="M984,652L1088,674L1030,585Z" fill="#77815a" stroke="#77815a" stroke-width="1.51"/><path d="M1030,585L1129,542L1030,467Z" fill="#8c8551" stroke="#8c8551" stroke-width="1.51"/><path d="M1021,788L1088,674L984,652Z" fill="#657d60" stroke="#657d60" stroke-width="1.51"/><path d="M1021,788L910,680L886,780Z" fill="#6a7d5f" stroke="#6a7d5f" stroke-width="1.51"/><path d="M669,118L578,117L567,201Z" fill="#cc5922" stroke="#cc5922" stroke-width="1.51"/><path d="M789,890L876,884L769,813Z" fill="#837154" stroke="#837154" stroke-width="1.51"/><path d="M1088,674L1129,542L1030,585Z" fill="#788159" stroke="#788159" stroke-width="1.51"/><path d="M1093,220L1010,209L975,346Z" fill="#a47040" stroke="#a47040" stroke-width="1.51"/><path d="M320,451L306,558L423,544Z" fill="#c16d2d" stroke="#c16d2d" stroke-width="1.51"/><path d="M423,666L429,810L539,659Z" fill="#996f46" stroke="#996f46" stroke-width="1.51"/><path d="M993,883L1021,788L886,780Z" fill="#667360" stroke="#667360" stroke-width="1.51"/><path d="M344,794L429,810L423,666Z" fill="#8f674a" stroke="#8f674a" stroke-width="1.51"/><path d="M542,811L636,922L681,782Z" fill="#916f4d" stroke="#916f4d" stroke-width="1.51"/><path d="M541,916L636,922L542,811Z" fill="#92634b" stroke="#92634b" stroke-width="1.51"/><path d="M789,890L783,989L876,884Z" fill="#846853" stroke="#846853" stroke-width="1.51"/><path d="M980,113L862,87L861,235Z" fill="#b46234" stroke="#b46234" stroke-width="1.51"/><path d="M754,1L684,6L669,118Z" fill="#d66a2c" stroke="#d66a2c" stroke-width="1.51"/><path d="M669,118L684,6L578,117Z" fill="#d26128" stroke="#d26128" stroke-width="1.51"/><path d="M227,453L237,569L306,558Z" fill="#bf642f" stroke="#bf642f" stroke-width="1.51"/><path d="M453,241L304,342L425,354Z" fill="#cc5d22" stroke="#cc5d22" stroke-width="1.51"/><path d="M322,203L304,342L453,241Z" fill="#cb4f22" stroke="#cb4f22" stroke-width="1.51"/><path d="M465,895L541,916L542,811Z" fill="#915f4a" stroke="#915f4a" stroke-width="1.51"/><path d="M306,558L293,657L423,666Z" fill="#aa673b" stroke="#aa673b" stroke-width="1.51"/><path d="M237,569L293,657L306,558Z" fill="#b16237" stroke="#b16237" stroke-width="1.51"/><path d="M1211,456L1129,315L1108,465Z" fill="#91814d" stroke="#91814d" stroke-width="1.51"/><path d="M1108,465L1129,315L1030,467Z" fill="#9a8448" stroke="#9a8448" stroke-width="1.51"/><path d="M1021,788L1094,772L1088,674Z" fill="#517967" stroke="#517967" stroke-width="1.51"/><path d="M1227,581L1211,456L1129,542Z" fill="#7b8058" stroke="#7b8058" stroke-width="1.51"/><path d="M1091,884L1094,772L1021,788Z" fill="#506f67" stroke="#506f67" stroke-width="1.51"/><path d="M305,922L465,895L429,810Z" fill="#905248" stroke="#905248" stroke-width="1.51"/><path d="M429,810L465,895L542,811Z" fill="#90614a" stroke="#90614a" stroke-width="1.51"/><path d="M876,884L993,883L886,780Z" fill="#70705c" stroke="#70705c" stroke-width="1.51"/><path d="M914,1020L993,883L876,884Z" fill="#72635a" stroke="#72635a" stroke-width="1.51"/><path d="M1129,315L1093,220L975,346Z" fill="#9f7444" stroke="#9f7444" stroke-width="1.51"/><path d="M1010,209L980,113L861,235Z" fill="#ae6739" stroke="#ae6739" stroke-width="1.51"/><path d="M1113,112L980,113L1010,209Z" fill="#a25f3e" stroke="#a25f3e" stroke-width="1.51"/><path d="M293,657L344,794L423,666Z" fill="#9a6544" stroke="#9a6544" stroke-width="1.51"/><path d="M578,117L409,133L567,201Z" fill="#cb4f22" stroke="#cb4f22" stroke-width="1.51"/><path d="M534,14L409,133L578,117Z" fill="#cf4f27" stroke="#cf4f27" stroke-width="1.51"/><path d="M293,657L241,769L344,794Z" fill="#925d46" stroke="#925d46" stroke-width="1.51"/><path d="M227,453L306,558L320,451Z" fill="#c66628" stroke="#c66628" stroke-width="1.51"/><path d="M636,922L661,986L789,890Z" fill="#93674c" stroke="#93674c" stroke-width="1.51"/><path d="M565,1023L661,986L636,922Z" fill="#945749" stroke="#945749" stroke-width="1.51"/><path d="M565,1023L636,922L541,916Z" fill="#935749" stroke="#935749" stroke-width="1.51"/><path d="M661,986L783,989L789,890Z" fill="#90644d" stroke="#90644d" stroke-width="1.51"/><path d="M304,342L227,453L320,451Z" fill="#cd6222" stroke="#cd6222" stroke-width="1.51"/><path d="M215,329L227,453L304,342Z" fill="#cd5923" stroke="#cd5923" stroke-width="1.51"/><path d="M1129,542L1211,456L1108,465Z" fill="#888452" stroke="#888452" stroke-width="1.51"/><path d="M1129,315L1217,253L1093,220Z" fill="#926d49" stroke="#926d49" stroke-width="1.51"/><path d="M1227,581L1129,542L1088,674Z" fill="#6c7e5e" stroke="#6c7e5e" stroke-width="1.51"/><path d="M409,133L322,203L453,241Z" fill="#c94622" stroke="#c94622" stroke-width="1.51"/><path d="M754,1L669,118L763,140Z" fill="#d16929" stroke="#d16929" stroke-width="1.51"/><path d="M754,1L763,140L862,87Z" fill="#c96830" stroke="#c96830" stroke-width="1.51"/><path d="M859,7L754,1L862,87Z" fill="#c86a37" stroke="#c86a37" stroke-width="1.51"/><path d="M237,569L235,652L293,657Z" fill="#ab603b" stroke="#ab603b" stroke-width="1.51"/><path d="M116,694L235,652L237,569Z" fill="#ab6240" stroke="#ab6240" stroke-width="1.51"/><path d="M1237,687L1227,581L1088,674Z" fill="#5a7964" stroke="#5a7964" stroke-width="1.51"/><path d="M976,4L859,7L862,87Z" fill="#be683d" stroke="#be683d" stroke-width="1.51"/><path d="M445,-32L534,14L527,-100Z" fill="#da5733" stroke="#da5733" stroke-width="1.51"/><path d="M684,6L534,14L578,117Z" fill="#d45d2c" stroke="#d45d2c" stroke-width="1.51"/><path d="M409,133L294,134L322,203Z" fill="#c73522" stroke="#c73522" stroke-width="1.51"/><path d="M227,453L81,534L237,569Z" fill="#c56833" stroke="#c56833" stroke-width="1.51"/><path d="M215,247L215,329L304,342Z" fill="#cc4d23" stroke="#cc4d23" stroke-width="1.51"/><path d="M1094,772L1237,687L1088,674Z" fill="#4c7869" stroke="#4c7869" stroke-width="1.51"/><path d="M993,883L1091,884L1021,788Z" fill="#5b6b64" stroke="#5b6b64" stroke-width="1.51"/><path d="M1114,1003L1091,884L993,883Z" fill="#595f63" stroke="#595f63" stroke-width="1.51"/><path d="M1211,456L1232,362L1129,315Z" fill="#8e7a4e" stroke="#8e7a4e" stroke-width="1.51"/><path d="M1342,362L1232,362L1355,425Z" fill="#916c4c" stroke="#916c4c" stroke-width="1.51"/><path d="M461,1040L565,1023L541,916Z" fill="#934947" stroke="#934947" stroke-width="1.51"/><path d="M661,986L565,1023L783,989Z" fill="#94584a" stroke="#94584a" stroke-width="1.51"/><path d="M461,1040L541,916L465,895Z" fill="#924e47" stroke="#924e47" stroke-width="1.51"/><path d="M344,794L305,922L429,810Z" fill="#905547" stroke="#905547" stroke-width="1.51"/><path d="M235,652L241,769L293,657Z" fill="#9d5d41" stroke="#9d5d41" stroke-width="1.51"/><path d="M116,694L241,769L235,652Z" fill="#9d5f46" stroke="#9d5f46" stroke-width="1.51"/><path d="M1227,581L1332,540L1211,456Z" fill="#7e7857" stroke="#7e7857" stroke-width="1.51"/><path d="M1198,815L1237,687L1094,772Z" fill="#2d726f" stroke="#2d726f" stroke-width="1.51"/><path d="M783,989L914,1020L876,884Z" fill="#7f5f54" stroke="#7f5f54" stroke-width="1.51"/><path d="M565,1023L914,1020L783,989Z" fill="#905a4d" stroke="#905a4d" stroke-width="1.51"/><path d="M1093,220L1113,112L1010,209Z" fill="#9d6342" stroke="#9d6342" stroke-width="1.51"/><path d="M980,113L976,4L862,87Z" fill="#b5653e" stroke="#b5653e" stroke-width="1.51"/><path d="M1219,132L1113,112L1093,220Z" fill="#935d46" stroke="#935d46" stroke-width="1.51"/><path d="M1232,362L1217,253L1129,315Z" fill="#8f704c" stroke="#8f704c" stroke-width="1.51"/><path d="M322,203L215,247L304,342Z" fill="#c94522" stroke="#c94522" stroke-width="1.51"/><path d="M331,-23L294,134L409,133Z" fill="#cc3627" stroke="#cc3627" stroke-width="1.51"/><path d="M1099,-8L976,4L980,113Z" fill="#ad6546" stroke="#ad6546" stroke-width="1.51"/><path d="M785,-105L649,-97L754,1Z" fill="#df7439" stroke="#df7439" stroke-width="1.51"/><path d="M294,134L215,247L322,203Z" fill="#c73422" stroke="#c73422" stroke-width="1.51"/><path d="M1091,884L1198,815L1094,772Z" fill="#436c6a" stroke="#436c6a" stroke-width="1.51"/><path d="M1220,922L1198,815L1091,884Z" fill="#3d636b" stroke="#3d636b" stroke-width="1.51"/><path d="M241,769L305,922L344,794Z" fill="#8f5146" stroke="#8f5146" stroke-width="1.51"/><path d="M565,1023L989,1039L914,1020Z" fill="#865551" stroke="#865551" stroke-width="1.51"/><path d="M305,922L461,1040L465,895Z" fill="#914546" stroke="#914546" stroke-width="1.51"/><path d="M914,1020L989,1039L993,883Z" fill="#6e595b" stroke="#6e595b" stroke-width="1.51"/><path d="M461,1040L989,1039L565,1023Z" fill="#955249" stroke="#955249" stroke-width="1.51"/><path d="M534,14L445,-32L409,133Z" fill="#d34c2b" stroke="#d34c2b" stroke-width="1.51"/><path d="M649,-97L534,14L684,6Z" fill="#db6532" stroke="#db6532" stroke-width="1.51"/><path d="M649,-97L684,6L754,1Z" fill="#dd6f34" stroke="#dd6f34" stroke-width="1.51"/><path d="M785,-105L754,1L859,7Z" fill="#d2703c" stroke="#d2703c" stroke-width="1.51"/><path d="M879,-90L785,-105L859,7Z" fill="#cf7142" stroke="#cf7142" stroke-width="1.51"/><path d="M976,4L879,-90L859,7Z" fill="#c26d43" stroke="#c26d43" stroke-width="1.51"/><path d="M997,-122L879,-90L976,4Z" fill="#bf6e4b" stroke="#bf6e4b" stroke-width="1.51"/><path d="M1367,650L1332,540L1227,581Z" fill="#6f6e5c" stroke="#6f6e5c" stroke-width="1.51"/><path d="M1232,362L1342,362L1217,253Z" fill="#906a4b" stroke="#906a4b" stroke-width="1.51"/><path d="M1367,650L1227,581L1237,687Z" fill="#617061" stroke="#617061" stroke-width="1.51"/><path d="M294,134L237,112L215,247Z" fill="#c72b22" stroke="#c72b22" stroke-width="1.51"/><path d="M331,-23L237,112L294,134Z" fill="#cb2b27" stroke="#cb2b27" stroke-width="1.51"/><path d="M215,329L98,447L227,453Z" fill="#d26329" stroke="#d26329" stroke-width="1.51"/><path d="M241,769L207,898L305,922Z" fill="#904846" stroke="#904846" stroke-width="1.51"/><path d="M87,336L98,447L215,329Z" fill="#d45e2b" stroke="#d45e2b" stroke-width="1.51"/><path d="M87,336L215,329L89,248Z" fill="#d3522b" stroke="#d3522b" stroke-width="1.51"/><path d="M1113,112L1099,-8L980,113Z" fill="#a36146" stroke="#a36146" stroke-width="1.51"/><path d="M1217,253L1219,132L1093,220Z" fill="#8e624a" stroke="#8e624a" stroke-width="1.51"/><path d="M1357,214L1219,132L1217,253Z" fill="#8f5748" stroke="#8f5748" stroke-width="1.51"/><path d="M81,534L116,694L237,569Z" fill="#b7663f" stroke="#b7663f" stroke-width="1.51"/><path d="M445,-32L331,-23L409,133Z" fill="#d2432c" stroke="#d2432c" stroke-width="1.51"/><path d="M649,-97L527,-100L534,14Z" fill="#de6136" stroke="#de6136" stroke-width="1.51"/><path d="M431,-122L527,-100L649,-97Z" fill="#e1603a" stroke="#e1603a" stroke-width="1.51"/><path d="M98,447L81,534L227,453Z" fill="#d06b30" stroke="#d06b30" stroke-width="1.51"/><path d="M1249,-10L1099,-8L1113,112Z" fill="#996250" stroke="#996250" stroke-width="1.51"/><path d="M1366,790L1367,650L1237,687Z" fill="#4f6667" stroke="#4f6667" stroke-width="1.51"/><path d="M989,1039L1114,1003L993,883Z" fill="#62585f" stroke="#62585f" stroke-width="1.51"/><path d="M1355,425L1232,362L1211,456Z" fill="#90764e" stroke="#90764e" stroke-width="1.51"/><path d="M1332,540L1355,425L1211,456Z" fill="#8b7651" stroke="#8b7651" stroke-width="1.51"/><path d="M305,922L303,1042L461,1040Z" fill="#913444" stroke="#913444" stroke-width="1.51"/><path d="M122,766L207,898L241,769Z" fill="#93544c" stroke="#93544c" stroke-width="1.51"/><path d="M74,881L122,766L-6,798Z" fill="#995953" stroke="#995953" stroke-width="1.51"/><path d="M116,694L122,766L241,769Z" fill="#985f4d" stroke="#985f4d" stroke-width="1.51"/><path d="M-15,451L-4,537L81,534Z" fill="#d16f3c" stroke="#d16f3c" stroke-width="1.51"/><path d="M89,248L215,329L215,247Z" fill="#cf4a28" stroke="#cf4a28" stroke-width="1.51"/><path d="M328,-108L331,-23L445,-32Z" fill="#d94433" stroke="#d94433" stroke-width="1.51"/><path d="M1114,1003L1220,922L1091,884Z" fill="#4a5a67" stroke="#4a5a67" stroke-width="1.51"/><path d="M1332,540L1439,460L1355,425Z" fill="#8d6d4f" stroke="#8d6d4f" stroke-width="1.51"/><path d="M1366,790L1237,687L1198,815Z" fill="#37696d" stroke="#37696d" stroke-width="1.51"/><path d="M73,137L89,248L215,247Z" fill="#d03e2a" stroke="#d03e2a" stroke-width="1.51"/><path d="M-15,451L81,534L98,447Z" fill="#d56f35" stroke="#d56f35" stroke-width="1.51"/><path d="M73,137L215,247L237,112Z" fill="#cc2f27" stroke="#cc2f27" stroke-width="1.51"/><path d="M188,990L303,1042L305,922Z" fill="#8f2c42" stroke="#8f2c42" stroke-width="1.51"/><path d="M461,1040L303,1042L989,1039Z" fill="#944747" stroke="#944747" stroke-width="1.51"/><path d="M1099,-8L997,-122L976,4Z" fill="#b26a4e" stroke="#b26a4e" stroke-width="1.51"/><path d="M879,-90L997,-122L785,-105Z" fill="#cc7249" stroke="#cc7249" stroke-width="1.51"/><path d="M785,-105L431,-122L649,-97Z" fill="#e36b3b" stroke="#e36b3b" stroke-width="1.51"/><path d="M1101,-141L431,-122L785,-105Z" fill="#de7742" stroke="#de7742" stroke-width="1.51"/><path d="M527,-100L431,-122L445,-32Z" fill="#de5537" stroke="#de5537" stroke-width="1.51"/><path d="M1219,132L1249,-10L1113,112Z" fill="#935b4d" stroke="#935b4d" stroke-width="1.51"/><path d="M1099,-8L1101,-141L997,-122Z" fill="#b06c55" stroke="#b06c55" stroke-width="1.51"/><path d="M1342,362L1357,214L1217,253Z" fill="#915e49" stroke="#915e49" stroke-width="1.51"/><path d="M1474,310L1357,214L1342,362Z" fill="#925648" stroke="#925648" stroke-width="1.51"/><path d="M1439,460L1342,362L1355,425Z" fill="#92694c" stroke="#92694c" stroke-width="1.51"/><path d="M1323,900L1366,790L1198,815Z" fill="#415c6a" stroke="#415c6a" stroke-width="1.51"/><path d="M207,898L188,990L305,922Z" fill="#913945" stroke="#913945" stroke-width="1.51"/><path d="M120,987L188,990L207,898Z" fill="#953749" stroke="#953749" stroke-width="1.51"/><path d="M1466,569L1439,460L1332,540Z" fill="#836754" stroke="#836754" stroke-width="1.51"/><path d="M1466,569L1332,540L1367,650Z" fill="#73665a" stroke="#73665a" stroke-width="1.51"/><path d="M81,534L-20,684L116,694Z" fill="#b46948" stroke="#b46948" stroke-width="1.51"/><path d="M122,766L74,881L207,898Z" fill="#96504e" stroke="#96504e" stroke-width="1.51"/><path d="M-15,451L98,447L87,336Z" fill="#da6931" stroke="#da6931" stroke-width="1.51"/><path d="M1252,1003L1323,900L1220,922Z" fill="#484f67" stroke="#484f67" stroke-width="1.51"/><path d="M1220,922L1323,900L1198,815Z" fill="#435a69" stroke="#435a69" stroke-width="1.51"/><path d="M431,-122L328,-108L445,-32Z" fill="#dd4d36" stroke="#dd4d36" stroke-width="1.51"/><path d="M331,-23L230,-34L237,112Z" fill="#d02d2c" stroke="#d02d2c" stroke-width="1.51"/><path d="M328,-108L230,-34L331,-23Z" fill="#d73933" stroke="#d73933" stroke-width="1.51"/><path d="M1114,1003L1252,1003L1220,922Z" fill="#475167" stroke="#475167" stroke-width="1.51"/><path d="M989,1039L1252,1003L1114,1003Z" fill="#544f63" stroke="#544f63" stroke-width="1.51"/><path d="M-32,319L87,336L89,248Z" fill="#d85530" stroke="#d85530" stroke-width="1.51"/><path d="M-32,319L-15,451L87,336Z" fill="#dc6433" stroke="#dc6433" stroke-width="1.51"/><path d="M1361,94L1249,-10L1219,132Z" fill="#94514c" stroke="#94514c" stroke-width="1.51"/><path d="M107,-19L73,137L237,112Z" fill="#d3302f" stroke="#d3302f" stroke-width="1.51"/><path d="M-6,798L122,766L116,694Z" fill="#9a6352" stroke="#9a6352" stroke-width="1.51"/><path d="M997,-122L1101,-141L785,-105Z" fill="#c27151" stroke="#c27151" stroke-width="1.51"/><path d="M1201,-125L1101,-141L1099,-8Z" fill="#a66a5a" stroke="#a66a5a" stroke-width="1.51"/><path d="M1461,661L1367,650L1443,772Z" fill="#585d63" stroke="#585d63" stroke-width="1.51"/><path d="M1461,661L1466,569L1367,650Z" fill="#6a5f5d" stroke="#6a5f5d" stroke-width="1.51"/><path d="M-4,537L-20,684L81,534Z" fill="#c16d45" stroke="#c16d45" stroke-width="1.51"/><path d="M-100,667L-20,684L-4,537Z" fill="#bb6e4e" stroke="#bb6e4e" stroke-width="1.51"/><path d="M1443,772L1367,650L1366,790Z" fill="#495e68" stroke="#495e68" stroke-width="1.51"/><path d="M1474,310L1342,362L1439,460Z" fill="#935f4a" stroke="#935f4a" stroke-width="1.51"/><path d="M1431,93L1361,94L1357,214Z" fill="#903f45" stroke="#903f45" stroke-width="1.51"/><path d="M1357,214L1361,94L1219,132Z" fill="#8f4945" stroke="#8f4945" stroke-width="1.51"/><path d="M74,881L120,987L207,898Z" fill="#97414c" stroke="#97414c" stroke-width="1.51"/><path d="M188,990L120,987L303,1042Z" fill="#932945" stroke="#932945" stroke-width="1.51"/><path d="M0,996L120,987L74,881Z" fill="#9b3d4f" stroke="#9b3d4f" stroke-width="1.51"/><path d="M-15,451L-113,546L-4,537Z" fill="#d47240" stroke="#d47240" stroke-width="1.51"/><path d="M-2,212L-32,319L89,248Z" fill="#d94e32" stroke="#d94e32" stroke-width="1.51"/><path d="M1438,892L1366,790L1323,900Z" fill="#485067" stroke="#485067" stroke-width="1.51"/><path d="M1438,892L1443,772L1366,790Z" fill="#475267" stroke="#475267" stroke-width="1.51"/><path d="M73,137L-2,212L89,248Z" fill="#d43f2f" stroke="#d43f2f" stroke-width="1.51"/><path d="M0,111L-2,212L73,137Z" fill="#d53530" stroke="#d53530" stroke-width="1.51"/><path d="M1542,447L1474,310L1439,460Z" fill="#945b4a" stroke="#945b4a" stroke-width="1.51"/><path d="M-20,684L-6,798L116,694Z" fill="#a26653" stroke="#a26653" stroke-width="1.51"/><path d="M230,-34L107,-19L237,112Z" fill="#d53130" stroke="#d53130" stroke-width="1.51"/><path d="M328,-108L227,-109L230,-34Z" fill="#da3635" stroke="#da3635" stroke-width="1.51"/><path d="M431,-122L227,-109L328,-108Z" fill="#de4338" stroke="#de4338" stroke-width="1.51"/><path d="M1333,-127L1201,-125L1249,-10Z" fill="#a05e5a" stroke="#a05e5a" stroke-width="1.51"/><path d="M1249,-10L1201,-125L1099,-8Z" fill="#9d6558" stroke="#9d6558" stroke-width="1.51"/><path d="M1361,94L1342,8L1249,-10Z" fill="#984f4f" stroke="#984f4f" stroke-width="1.51"/><path d="M1430,5L1342,8L1361,94Z" fill="#97464d" stroke="#97464d" stroke-width="1.51"/><path d="M1252,1003L1338,1006L1323,900Z" fill="#4b4665" stroke="#4b4665" stroke-width="1.51"/><path d="M989,1039L1338,1006L1252,1003Z" fill="#494b65" stroke="#494b65" stroke-width="1.51"/><path d="M227,-109L107,-19L230,-34Z" fill="#dc3837" stroke="#dc3837" stroke-width="1.51"/><path d="M1474,310L1481,221L1357,214Z" fill="#914846" stroke="#914846" stroke-width="1.51"/><path d="M1537,219L1481,221L1474,310Z" fill="#924145" stroke="#924145" stroke-width="1.51"/><path d="M107,-19L0,111L73,137Z" fill="#d83433" stroke="#d83433" stroke-width="1.51"/><path d="M-146,365L-105,430L-32,319Z" fill="#e2693b" stroke="#e2693b" stroke-width="1.51"/><path d="M1338,1006L1438,892L1323,900Z" fill="#4b4665" stroke="#4b4665" stroke-width="1.51"/><path d="M1572,543L1466,569L1561,661Z" fill="#755658" stroke="#755658" stroke-width="1.51"/><path d="M1481,221L1431,93L1357,214Z" fill="#903f44" stroke="#903f44" stroke-width="1.51"/><path d="M-32,319L-105,430L-15,451Z" fill="#e06c38" stroke="#e06c38" stroke-width="1.51"/><path d="M-20,684L-100,667L-6,798Z" fill="#a86a57" stroke="#a86a57" stroke-width="1.51"/><path d="M-146,365L-32,319L-125,252Z" fill="#e15f3a" stroke="#e15f3a" stroke-width="1.51"/><path d="M1466,569L1461,661L1561,661Z" fill="#6b585c" stroke="#6b585c" stroke-width="1.51"/><path d="M1572,543L1542,447L1466,569Z" fill="#855951" stroke="#855951" stroke-width="1.51"/><path d="M1466,569L1542,447L1439,460Z" fill="#8b604f" stroke="#8b604f" stroke-width="1.51"/><path d="M-105,430L-113,546L-15,451Z" fill="#de753e" stroke="#de753e" stroke-width="1.51"/><path d="M-113,546L-100,667L-4,537Z" fill="#c7714b" stroke="#c7714b" stroke-width="1.51"/><path d="M-6,798L-16,912L74,881Z" fill="#9d5255" stroke="#9d5255" stroke-width="1.51"/><path d="M-103,875L-16,912L-6,798Z" fill="#a05558" stroke="#a05558" stroke-width="1.51"/><path d="M1561,661L1461,661L1443,772Z" fill="#595662" stroke="#595662" stroke-width="1.51"/><path d="M1596,316L1537,219L1474,310Z" fill="#924046" stroke="#924046" stroke-width="1.51"/><path d="M1589,765L1561,661L1443,772Z" fill="#514f64" stroke="#514f64" stroke-width="1.51"/><path d="M1596,316L1474,310L1542,447Z" fill="#944d48" stroke="#944d48" stroke-width="1.51"/><path d="M1481,221L1537,219L1431,93Z" fill="#903644" stroke="#903644" stroke-width="1.51"/><path d="M1431,93L1430,5L1361,94Z" fill="#95404a" stroke="#95404a" stroke-width="1.51"/><path d="M1342,8L1333,-127L1249,-10Z" fill="#9d5555" stroke="#9d5555" stroke-width="1.51"/><path d="M1551,-7L1430,5L1431,93Z" fill="#98384c" stroke="#98384c" stroke-width="1.51"/><path d="M-16,912L0,996L74,881Z" fill="#9d4452" stroke="#9d4452" stroke-width="1.51"/><path d="M120,987L0,996L303,1042Z" fill="#962b49" stroke="#962b49" stroke-width="1.51"/><path d="M-139,1021L0,996L-16,912Z" fill="#a13d55" stroke="#a13d55" stroke-width="1.51"/><path d="M-105,430L-146,365L-113,546Z" fill="#e6783e" stroke="#e6783e" stroke-width="1.51"/><path d="M-150,816L-6,798L-100,667Z" fill="#a16a5d" stroke="#a16a5d" stroke-width="1.51"/><path d="M-125,252L-32,319L-2,212Z" fill="#dd5236" stroke="#dd5236" stroke-width="1.51"/><path d="M-145,88L-125,252L-2,212Z" fill="#dd4338" stroke="#dd4338" stroke-width="1.51"/><path d="M107,-19L-20,-24L0,111Z" fill="#df3a3a" stroke="#df3a3a" stroke-width="1.51"/><path d="M227,-109L71,-89L107,-19Z" fill="#e13c3c" stroke="#e13c3c" stroke-width="1.51"/><path d="M-145,88L-2,212L0,111Z" fill="#d93534" stroke="#d93534" stroke-width="1.51"/><path d="M1430,5L1333,-127L1342,8Z" fill="#9d4c54" stroke="#9d4c54" stroke-width="1.51"/><path d="M1201,-125L1333,-127L1101,-141Z" fill="#a3675f" stroke="#a3675f" stroke-width="1.51"/><path d="M1537,219L1577,86L1431,93Z" fill="#902942" stroke="#902942" stroke-width="1.51"/><path d="M1572,543L1596,316L1542,447Z" fill="#955549" stroke="#955549" stroke-width="1.51"/><path d="M1589,765L1596,316L1572,543Z" fill="#825152" stroke="#825152" stroke-width="1.51"/><path d="M-150,816L-100,667L-113,546Z" fill="#b56f58" stroke="#b56f58" stroke-width="1.51"/><path d="M-150,816L-103,875L-6,798Z" fill="#a25e5c" stroke="#a25e5c" stroke-width="1.51"/><path d="M1546,914L1589,765L1443,772Z" fill="#4b4764" stroke="#4b4764" stroke-width="1.51"/><path d="M1338,1006L1465,1010L1438,892Z" fill="#4f3a62" stroke="#4f3a62" stroke-width="1.51"/><path d="M1553,1036L1465,1010L1338,1006Z" fill="#502e5f" stroke="#502e5f" stroke-width="1.51"/><path d="M71,-89L-20,-24L107,-19Z" fill="#e43f3e" stroke="#e43f3e" stroke-width="1.51"/><path d="M1561,661L1589,765L1572,543Z" fill="#674e5d" stroke="#674e5d" stroke-width="1.51"/><path d="M1546,914L1443,772L1438,892Z" fill="#4c4564" stroke="#4c4564" stroke-width="1.51"/><path d="M-146,365L-150,816L-113,546Z" fill="#cc744e" stroke="#cc744e" stroke-width="1.51"/><path d="M1465,1010L1546,914L1438,892Z" fill="#4f3861" stroke="#4f3861" stroke-width="1.51"/><path d="M71,-89L1,-115L-20,-24Z" fill="#e94443" stroke="#e94443" stroke-width="1.51"/><path d="M-112,-13L-145,88L0,111Z" fill="#e23e3d" stroke="#e23e3d" stroke-width="1.51"/><path d="M227,-109L1,-115L71,-89Z" fill="#e74141" stroke="#e74141" stroke-width="1.51"/><path d="M431,-122L1,-115L227,-109Z" fill="#e03b3b" stroke="#e03b3b" stroke-width="1.51"/><path d="M-153,-124L1,-115L431,-122Z" fill="#e84342" stroke="#e84342" stroke-width="1.51"/><path d="M1430,5L1437,-134L1333,-127Z" fill="#a14b58" stroke="#a14b58" stroke-width="1.51"/><path d="M1596,316L1577,86L1537,219Z" fill="#912d43" stroke="#912d43" stroke-width="1.51"/><path d="M-112,-13L0,111L-20,-24Z" fill="#e33f3e" stroke="#e33f3e" stroke-width="1.51"/><path d="M-125,252L-145,88L-146,365Z" fill="#e2513b" stroke="#e2513b" stroke-width="1.51"/><path d="M-146,365L-153,-124L-150,816Z" fill="#e6693f" stroke="#e6693f" stroke-width="1.51"/><path d="M1551,-7L1437,-134L1430,5Z" fill="#9e3d53" stroke="#9e3d53" stroke-width="1.51"/><path d="M1333,-127L1437,-134L1101,-141Z" fill="#a55d5e" stroke="#a55d5e" stroke-width="1.51"/><path d="M1577,86L1551,-7L1431,93Z" fill="#962d49" stroke="#962d49" stroke-width="1.51"/><path d="M1,-115L-112,-13L-20,-24Z" fill="#ea4545" stroke="#ea4545" stroke-width="1.51"/><path d="M1465,1010L1553,1036L1546,914Z" fill="#512b5f" stroke="#512b5f" stroke-width="1.51"/><path d="M1546,914L1553,1036L1589,765Z" fill="#503460" stroke="#503460" stroke-width="1.51"/><path d="M989,1039L1553,1036L1338,1006Z" fill="#4e3f63" stroke="#4e3f63" stroke-width="1.51"/><path d="M-103,875L-139,1021L-16,912Z" fill="#a24859" stroke="#a24859" stroke-width="1.51"/><path d="M0,996L-139,1021L303,1042Z" fill="#9b2d4e" stroke="#9b2d4e" stroke-width="1.51"/><path d="M-150,816L-139,1021L-103,875Z" fill="#a5515c" stroke="#a5515c" stroke-width="1.51"/><path d="M1577,86L1561,-141L1551,-7Z" fill="#9c2b4e" stroke="#9c2b4e" stroke-width="1.51"/><path d="M1551,-7L1561,-141L1437,-134Z" fill="#a23956" stroke="#a23956" stroke-width="1.51"/><path d="M1437,-134L1561,-141L1101,-141Z" fill="#a5535d" stroke="#a5535d" stroke-width="1.51"/><path d="M1596,316L1561,-141L1577,86Z" fill="#931f45" stroke="#931f45" stroke-width="1.51"/><path d="M1,-115L-153,-124L-112,-13Z" fill="#f14a4b" stroke="#f14a4b" stroke-width="1.51"/><path d="M-112,-13L-153,-124L-145,88Z" fill="#ed4748" stroke="#ed4748" stroke-width="1.51"/><path d="M-145,88L-153,-124L-146,365Z" fill="#e23d3d" stroke="#e23d3d" stroke-width="1.51"/><path d="M1101,-141L-153,-124L431,-122Z" fill="#e2583b" stroke="#e2583b" stroke-width="1.51"/></svg>